# Blender v2.92.0 OBJ File: ''
# www.blender.org
mtllib untitled.mtl
o 立方体
v -0.279537 0.027266 -0.625715
v -0.755583 0.048651 -0.030170
v -0.279537 9.581869 -0.968812
v -0.755583 9.603254 -0.373267
v 0.847124 0.059564 0.273717
v 0.371078 0.080949 0.869262
v 0.847125 9.614166 -0.069380
v 0.371078 9.635551 0.526165
vt 0.375000 0.000000
vt 0.625000 0.000000
vt 0.625000 0.250000
vt 0.375000 0.250000
vt 0.625000 0.500000
vt 0.375000 0.500000
vt 0.625000 0.750000
vt 0.375000 0.750000
vt 0.625000 1.000000
vt 0.375000 1.000000
vt 0.125000 0.500000
vt 0.125000 0.750000
vt 0.875000 0.500000
vt 0.875000 0.750000
vn -0.7813 -0.0224 -0.6237
vn 0.0000 0.9994 -0.0359
vn 0.7813 0.0224 0.6237
vn 0.0000 -0.9994 0.0359
vn 0.6241 -0.0280 -0.7808
vn -0.6241 0.0280 0.7808
usemtl None
s off
f 1/1/1 2/2/1 4/3/1 3/4/1
f 3/4/2 4/3/2 8/5/2 7/6/2
f 7/6/3 8/5/3 6/7/3 5/8/3
f 5/8/4 6/7/4 2/9/4 1/10/4
f 3/11/5 7/6/5 5/8/5 1/12/5
f 8/5/6 4/13/6 2/14/6 6/7/6
o 立方体.001_立方体.002
v 1.141113 8.927183 1.553763
v 1.141113 10.567484 1.553763
v -2.160835 8.927183 -0.371503
v -2.160835 10.567484 -0.371503
v 2.126775 8.927183 -0.136705
v 2.126775 10.567484 -0.136705
v -1.175173 8.927183 -2.061971
v -1.175173 10.567484 -2.061971
vt 0.375000 0.000000
vt 0.625000 0.000000
vt 0.625000 0.250000
vt 0.375000 0.250000
vt 0.625000 0.500000
vt 0.375000 0.500000
vt 0.625000 0.750000
vt 0.375000 0.750000
vt 0.625000 1.000000
vt 0.375000 1.000000
vt 0.125000 0.500000
vt 0.125000 0.750000
vt 0.875000 0.500000
vt 0.875000 0.750000
vn -0.5037 0.0000 0.8639
vn -0.8639 0.0000 -0.5037
vn 0.5037 0.0000 -0.8639
vn 0.8639 0.0000 0.5037
vn 0.0000 -1.0000 0.0000
vn 0.0000 1.0000 0.0000
usemtl None
s off
f 9/15/7 10/16/7 12/17/7 11/18/7
f 11/18/8 12/17/8 16/19/8 15/20/8
f 15/20/9 16/19/9 14/21/9 13/22/9
f 13/22/10 14/21/10 10/23/10 9/24/10
f 11/25/11 15/20/11 13/22/11 9/26/11
f 16/19/12 12/27/12 10/28/12 14/21/12
